M48
; DRILL file KiCad 10.0.4 date 2026-07-15T14:49:39
; FORMAT={-:-/ absolute / metric / decimal}
; #@! TF.CreationDate,2026-07-15T14:49:39-04:00
; #@! TF.GenerationSoftware,Kicad,Pcbnew,10.0.4
; #@! TF.FileFunction,Plated,1,2,PTH
FMAT,2
METRIC
; #@! TA.AperFunction,Plated,PTH,ComponentDrill
T1C0.800
; #@! TA.AperFunction,Plated,PTH,ComponentDrill
T2C1.000
%
G90
G05
T1
X51.1Y-91.19
X51.1Y-98.81
X63.631Y-91.19
X63.631Y-98.81
X74.6Y-91.19
X74.6Y-98.81
X85.914Y-91.19
X85.914Y-98.81
X96.7Y-91.19
X96.7Y-98.81
T2
X51.065Y-106.0
X51.075Y-131.4
X51.1Y-88.1
X53.605Y-106.0
X53.615Y-131.4
X53.64Y-88.1
X56.145Y-106.0
X56.155Y-131.4
X58.685Y-106.0
X58.695Y-131.4
X61.225Y-106.0
X61.235Y-131.4
X63.623Y-88.1
X63.765Y-106.0
X63.775Y-131.4
X66.163Y-88.1
X66.305Y-106.0
X66.315Y-131.4
X68.845Y-106.0
X68.855Y-131.4
X71.385Y-106.0
X71.395Y-131.4
X71.4Y-102.0
X73.925Y-106.0
X73.935Y-131.4
X73.94Y-102.0
X74.589Y-88.1
X76.465Y-106.0
X76.475Y-131.4
X76.48Y-102.0
X77.129Y-88.1
X79.005Y-106.0
X79.015Y-131.4
X79.02Y-102.0
X81.545Y-106.0
X81.555Y-131.4
X84.085Y-106.0
X84.095Y-131.4
X85.915Y-88.1
X86.625Y-106.0
X86.635Y-131.4
X88.455Y-88.1
X89.165Y-106.0
X89.175Y-131.4
X91.705Y-106.0
X91.715Y-131.4
X94.245Y-106.0
X94.255Y-131.4
X96.725Y-88.1
X96.785Y-106.0
X96.795Y-131.4
X99.265Y-88.1
X99.325Y-106.0
X99.335Y-131.4
M30
