%TF.GenerationSoftware,KiCad,Pcbnew,10.0.4*%
%TF.CreationDate,2026-07-15T14:49:10-04:00*%
%TF.ProjectId,asl_glove_pcb,61736c5f-676c-46f7-9665-5f7063622e6b,0*%
%TF.SameCoordinates,Original*%
%TF.FileFunction,Legend,Top*%
%TF.FilePolarity,Positive*%
%FSLAX46Y46*%
G04 Gerber Fmt 4.6, Leading zero omitted, Abs format (unit mm)*
G04 Created by KiCad (PCBNEW 10.0.4) date 2026-07-15 14:49:10*
%MOMM*%
%LPD*%
G01*
G04 APERTURE LIST*
%ADD10C,0.150000*%
%ADD11C,0.120000*%
G04 APERTURE END LIST*
D10*
X51554819Y-95216666D02*
X51078628Y-95549999D01*
X51554819Y-95788094D02*
X50554819Y-95788094D01*
X50554819Y-95788094D02*
X50554819Y-95407142D01*
X50554819Y-95407142D02*
X50602438Y-95311904D01*
X50602438Y-95311904D02*
X50650057Y-95264285D01*
X50650057Y-95264285D02*
X50745295Y-95216666D01*
X50745295Y-95216666D02*
X50888152Y-95216666D01*
X50888152Y-95216666D02*
X50983390Y-95264285D01*
X50983390Y-95264285D02*
X51031009Y-95311904D01*
X51031009Y-95311904D02*
X51078628Y-95407142D01*
X51078628Y-95407142D02*
X51078628Y-95788094D01*
X51554819Y-94264285D02*
X51554819Y-94835713D01*
X51554819Y-94549999D02*
X50554819Y-94549999D01*
X50554819Y-94549999D02*
X50697676Y-94645237D01*
X50697676Y-94645237D02*
X50792914Y-94740475D01*
X50792914Y-94740475D02*
X50840533Y-94835713D01*
X75045729Y-95016666D02*
X74569538Y-95349999D01*
X75045729Y-95588094D02*
X74045729Y-95588094D01*
X74045729Y-95588094D02*
X74045729Y-95207142D01*
X74045729Y-95207142D02*
X74093348Y-95111904D01*
X74093348Y-95111904D02*
X74140967Y-95064285D01*
X74140967Y-95064285D02*
X74236205Y-95016666D01*
X74236205Y-95016666D02*
X74379062Y-95016666D01*
X74379062Y-95016666D02*
X74474300Y-95064285D01*
X74474300Y-95064285D02*
X74521919Y-95111904D01*
X74521919Y-95111904D02*
X74569538Y-95207142D01*
X74569538Y-95207142D02*
X74569538Y-95588094D01*
X74045729Y-94683332D02*
X74045729Y-94064285D01*
X74045729Y-94064285D02*
X74426681Y-94397618D01*
X74426681Y-94397618D02*
X74426681Y-94254761D01*
X74426681Y-94254761D02*
X74474300Y-94159523D01*
X74474300Y-94159523D02*
X74521919Y-94111904D01*
X74521919Y-94111904D02*
X74617157Y-94064285D01*
X74617157Y-94064285D02*
X74855252Y-94064285D01*
X74855252Y-94064285D02*
X74950490Y-94111904D01*
X74950490Y-94111904D02*
X74998110Y-94159523D01*
X74998110Y-94159523D02*
X75045729Y-94254761D01*
X75045729Y-94254761D02*
X75045729Y-94540475D01*
X75045729Y-94540475D02*
X74998110Y-94635713D01*
X74998110Y-94635713D02*
X74950490Y-94683332D01*
X86341643Y-95016666D02*
X85865452Y-95349999D01*
X86341643Y-95588094D02*
X85341643Y-95588094D01*
X85341643Y-95588094D02*
X85341643Y-95207142D01*
X85341643Y-95207142D02*
X85389262Y-95111904D01*
X85389262Y-95111904D02*
X85436881Y-95064285D01*
X85436881Y-95064285D02*
X85532119Y-95016666D01*
X85532119Y-95016666D02*
X85674976Y-95016666D01*
X85674976Y-95016666D02*
X85770214Y-95064285D01*
X85770214Y-95064285D02*
X85817833Y-95111904D01*
X85817833Y-95111904D02*
X85865452Y-95207142D01*
X85865452Y-95207142D02*
X85865452Y-95588094D01*
X85674976Y-94159523D02*
X86341643Y-94159523D01*
X85294024Y-94397618D02*
X86008309Y-94635713D01*
X86008309Y-94635713D02*
X86008309Y-94016666D01*
X97114819Y-95016666D02*
X96638628Y-95349999D01*
X97114819Y-95588094D02*
X96114819Y-95588094D01*
X96114819Y-95588094D02*
X96114819Y-95207142D01*
X96114819Y-95207142D02*
X96162438Y-95111904D01*
X96162438Y-95111904D02*
X96210057Y-95064285D01*
X96210057Y-95064285D02*
X96305295Y-95016666D01*
X96305295Y-95016666D02*
X96448152Y-95016666D01*
X96448152Y-95016666D02*
X96543390Y-95064285D01*
X96543390Y-95064285D02*
X96591009Y-95111904D01*
X96591009Y-95111904D02*
X96638628Y-95207142D01*
X96638628Y-95207142D02*
X96638628Y-95588094D01*
X96114819Y-94111904D02*
X96114819Y-94588094D01*
X96114819Y-94588094D02*
X96591009Y-94635713D01*
X96591009Y-94635713D02*
X96543390Y-94588094D01*
X96543390Y-94588094D02*
X96495771Y-94492856D01*
X96495771Y-94492856D02*
X96495771Y-94254761D01*
X96495771Y-94254761D02*
X96543390Y-94159523D01*
X96543390Y-94159523D02*
X96591009Y-94111904D01*
X96591009Y-94111904D02*
X96686247Y-94064285D01*
X96686247Y-94064285D02*
X96924342Y-94064285D01*
X96924342Y-94064285D02*
X97019580Y-94111904D01*
X97019580Y-94111904D02*
X97067200Y-94159523D01*
X97067200Y-94159523D02*
X97114819Y-94254761D01*
X97114819Y-94254761D02*
X97114819Y-94492856D01*
X97114819Y-94492856D02*
X97067200Y-94588094D01*
X97067200Y-94588094D02*
X97019580Y-94635713D01*
X64134899Y-95016666D02*
X63658708Y-95349999D01*
X64134899Y-95588094D02*
X63134899Y-95588094D01*
X63134899Y-95588094D02*
X63134899Y-95207142D01*
X63134899Y-95207142D02*
X63182518Y-95111904D01*
X63182518Y-95111904D02*
X63230137Y-95064285D01*
X63230137Y-95064285D02*
X63325375Y-95016666D01*
X63325375Y-95016666D02*
X63468232Y-95016666D01*
X63468232Y-95016666D02*
X63563470Y-95064285D01*
X63563470Y-95064285D02*
X63611089Y-95111904D01*
X63611089Y-95111904D02*
X63658708Y-95207142D01*
X63658708Y-95207142D02*
X63658708Y-95588094D01*
X63230137Y-94635713D02*
X63182518Y-94588094D01*
X63182518Y-94588094D02*
X63134899Y-94492856D01*
X63134899Y-94492856D02*
X63134899Y-94254761D01*
X63134899Y-94254761D02*
X63182518Y-94159523D01*
X63182518Y-94159523D02*
X63230137Y-94111904D01*
X63230137Y-94111904D02*
X63325375Y-94064285D01*
X63325375Y-94064285D02*
X63420613Y-94064285D01*
X63420613Y-94064285D02*
X63563470Y-94111904D01*
X63563470Y-94111904D02*
X64134899Y-94683332D01*
X64134899Y-94683332D02*
X64134899Y-94064285D01*
%TO.C,R1*%
D11*
X52470000Y-91730000D02*
X52470000Y-98270000D01*
X52140000Y-91730000D02*
X52470000Y-91730000D01*
X50060000Y-91730000D02*
X49730000Y-91730000D01*
X49730000Y-91730000D02*
X49730000Y-98270000D01*
X52470000Y-98270000D02*
X52140000Y-98270000D01*
X49730000Y-98270000D02*
X50060000Y-98270000D01*
%TO.C,J3*%
X75859243Y-86720000D02*
X78509243Y-86720000D01*
X78509243Y-89480000D02*
X78509243Y-86720000D01*
X75859243Y-89480000D02*
X75859243Y-86720000D01*
X75859243Y-89480000D02*
X78509243Y-89480000D01*
X74589243Y-89480000D02*
X73209243Y-89480000D01*
X73209243Y-89480000D02*
X73209243Y-88100000D01*
%TO.C,R3*%
X75970000Y-91730000D02*
X75970000Y-98270000D01*
X75640000Y-91730000D02*
X75970000Y-91730000D01*
X73560000Y-91730000D02*
X73230000Y-91730000D01*
X73230000Y-91730000D02*
X73230000Y-98270000D01*
X75970000Y-98270000D02*
X75640000Y-98270000D01*
X73230000Y-98270000D02*
X73560000Y-98270000D01*
%TO.C,J4*%
X84534870Y-89480000D02*
X84534870Y-88100000D01*
X85914870Y-89480000D02*
X84534870Y-89480000D01*
X87184870Y-89480000D02*
X89834870Y-89480000D01*
X87184870Y-89480000D02*
X87184870Y-86720000D01*
X89834870Y-89480000D02*
X89834870Y-86720000D01*
X87184870Y-86720000D02*
X89834870Y-86720000D01*
%TO.C,R4*%
X87283750Y-91730000D02*
X87283750Y-98270000D01*
X86953750Y-91730000D02*
X87283750Y-91730000D01*
X84873750Y-91730000D02*
X84543750Y-91730000D01*
X84543750Y-91730000D02*
X84543750Y-98270000D01*
X87283750Y-98270000D02*
X86953750Y-98270000D01*
X84543750Y-98270000D02*
X84873750Y-98270000D01*
%TO.C,J5*%
X97995000Y-86720000D02*
X100645000Y-86720000D01*
X100645000Y-89480000D02*
X100645000Y-86720000D01*
X97995000Y-89480000D02*
X97995000Y-86720000D01*
X97995000Y-89480000D02*
X100645000Y-89480000D01*
X96725000Y-89480000D02*
X95345000Y-89480000D01*
X95345000Y-89480000D02*
X95345000Y-88100000D01*
%TO.C,J1*%
X52370000Y-86720000D02*
X55020000Y-86720000D01*
X55020000Y-89480000D02*
X55020000Y-86720000D01*
X52370000Y-89480000D02*
X52370000Y-86720000D01*
X52370000Y-89480000D02*
X55020000Y-89480000D01*
X51100000Y-89480000D02*
X49720000Y-89480000D01*
X49720000Y-89480000D02*
X49720000Y-88100000D01*
%TO.C,R5*%
X95330000Y-98270000D02*
X95660000Y-98270000D01*
X98070000Y-98270000D02*
X97740000Y-98270000D01*
X95330000Y-91730000D02*
X95330000Y-98270000D01*
X95660000Y-91730000D02*
X95330000Y-91730000D01*
X97740000Y-91730000D02*
X98070000Y-91730000D01*
X98070000Y-91730000D02*
X98070000Y-98270000D01*
%TO.C,J7*%
X52345000Y-130020000D02*
X100715000Y-130020000D01*
X100715000Y-132780000D02*
X100715000Y-130020000D01*
X52345000Y-132780000D02*
X52345000Y-130020000D01*
X52345000Y-132780000D02*
X100715000Y-132780000D01*
X51075000Y-132780000D02*
X49695000Y-132780000D01*
X49695000Y-132780000D02*
X49695000Y-131400000D01*
%TO.C,J6*%
X70020000Y-103380000D02*
X70020000Y-102000000D01*
X71400000Y-103380000D02*
X70020000Y-103380000D01*
X72670000Y-103380000D02*
X80400000Y-103380000D01*
X72670000Y-103380000D02*
X72670000Y-100620000D01*
X80400000Y-103380000D02*
X80400000Y-100620000D01*
X72670000Y-100620000D02*
X80400000Y-100620000D01*
%TO.C,J8*%
X100705000Y-104620000D02*
X100705000Y-106000000D01*
X99325000Y-104620000D02*
X100705000Y-104620000D01*
X98055000Y-104620000D02*
X49685000Y-104620000D01*
X98055000Y-104620000D02*
X98055000Y-107380000D01*
X49685000Y-104620000D02*
X49685000Y-107380000D01*
X98055000Y-107380000D02*
X49685000Y-107380000D01*
%TO.C,R2*%
X62261250Y-98270000D02*
X62591250Y-98270000D01*
X65001250Y-98270000D02*
X64671250Y-98270000D01*
X62261250Y-91730000D02*
X62261250Y-98270000D01*
X62591250Y-91730000D02*
X62261250Y-91730000D01*
X64671250Y-91730000D02*
X65001250Y-91730000D01*
X65001250Y-91730000D02*
X65001250Y-98270000D01*
%TO.C,J2*%
X62243206Y-89480000D02*
X62243206Y-88100000D01*
X63623206Y-89480000D02*
X62243206Y-89480000D01*
X64893206Y-89480000D02*
X67543206Y-89480000D01*
X64893206Y-89480000D02*
X64893206Y-86720000D01*
X67543206Y-89480000D02*
X67543206Y-86720000D01*
X64893206Y-86720000D02*
X67543206Y-86720000D01*
%TD*%
M02*
